# xmcd CD database file
#
# Track frame offsets:
#	150
#	24127
#	43476
#	63862
#	92458
#	116244
#	132267
#	154797
#	172399
#
# Disc length: 2527 seconds
#
# Revision: 0
# Processed by: cddbd v1.5.2PL0 Copyright (c) Steve Scherf et al.
# Submitted via: CDex 1.51
#
DISCID=7709dd09
DTITLE=Barrelhouse - Beware
DYEAR=1900
DGENRE=Blues
TTITLE0=Beware
TTITLE1=I'm Torn Down
TTITLE2=I'll be Thinkin of You
TTITLE3=I Don't Wanna be a Loser
TTITLE4=Callin' Out Your Name
TTITLE5=You're gonna change
TTITLE6=Callin' Albert
TTITLE7=Don't Tie Me Down
TTITLE8=City Lights
EXTD=
EXTT0=
EXTT1=
EXTT2=
EXTT3=
EXTT4=
EXTT5=
EXTT6=
EXTT7=
EXTT8=
PLAYORDER=
